<?xml version="1.0" encoding="utf-8"?>
<svg version="1.1" xmlns="http://www.w3.org/2000/svg" xmlns:xlink="http://www.w3.org/1999/xlink" x="0px" y="0px" viewBox="0 0 38 38" enable-background="new 0 0 38 38" xml:space="preserve">
  <g>
    <path d="M26.2,38V23.3c1.2,0,2.5,0,3.7,0c0.8,0,1.2-0.3,1.2-1.1c0.1-1.5,0.4-2.9,0.6-4.6h-5.6c0-1.7-0.1-3.2,0-4.7c0.1-1.2,0.9-1.9,2.2-1.9c1.2,0,2.4,0,3.8,0c0-1.6,0-3.1,0-4.7c0-0.2-0.4-0.5-0.7-0.5c-1.9,0-3.9-0.2-5.7,0.1c-3.5,0.6-5.5,3.2-5.6,6.8c0,1.6,0,3.1,0,4.9c-1.2,0-2.4,0-3.6,0c-0.8,0-1.2,0.3-1.1,1.1c0.1,1.5,0,2.9,0,4.5H20v14.6c-0.4,0-0.8,0.1-1.2,0.1c-5.3,0-10.6,0-15.9,0C0.8,38,0,37.2,0,35C0,24.3,0,13.6,0,2.9C0,0.8,0.8,0,3,0c10.6,0,21.2,0,31.8,0c2.2,0,3,0.8,3,2.9c0,10.7,0,21.5,0,32.2c0,2-0.9,2.8-2.9,2.8C32.1,38,29.2,38,26.2,38"/>
  </g>
</svg>
