<?xml version="1.0" encoding="utf-8"?>
<svg version="1.1" xmlns="http://www.w3.org/2000/svg" xmlns:xlink="http://www.w3.org/1999/xlink" x="0px" y="0px" viewBox="0 0 38 38" enable-background="new 0 0 38 38" xml:space="preserve">
  <g>
    <path d="M19,0c4.2,0,8.4,0,12.7,0c3.8,0,6.2,2.1,6.2,5.9c0.1,8.7,0.1,17.4,0,26.2c0,3.8-2.4,5.9-6.2,5.9c-8.5,0-17,0-25.5,0C2.3,38,0,35.8,0,31.9c0-8.6,0-17.2,0-25.8c0-3.7,2.3-6,6-6C10.3,0,14.6,0,19,0L19,0z M3.8,16.5c0,0.5-0.1,0.8-0.1,1.1c0,5,0,9.9,0,14.9c0,1.5,0.2,1.6,1.6,1.6c9,0,18,0,27,0c1.5,0,1.7-0.2,1.7-1.7c0-4.9,0-9.8,0-14.7c0-0.4,0-0.7-0.1-1.2h-4.3c0.4,3.4,0,6.5-2.1,9.1c-2.1,2.7-4.9,4.1-8.4,4.2c-2.7,0.1-5.2-0.7-7.3-2.4c-3.4-2.8-4.5-6.6-3.9-11H3.8V16.5z M11.6,19c0,3.9,3.4,7.3,7.3,7.3s7.2-3.3,7.2-7.2s-3.3-7.3-7.3-7.3C14.9,11.7,11.6,15.1,11.6,19L11.6,19z M30.8,10.3c0.7,0,1.3,0,2,0c0.9,0,1.3-0.4,1.3-1.3c0-1.3,0-2.5,0-3.8c0-1-0.4-1.4-1.4-1.4c-1.2,0-2.4,0-3.6,0c-1.5,0-1.6,0.1-1.6,1.6c0,0.6,0,1.1,0,1.7C27.6,10.7,27.1,10.3,30.8,10.3L30.8,10.3z"/>
  </g>
</svg>
