<?xml version="1.0" encoding="utf-8"?>
<svg version="1.1" xmlns="http://www.w3.org/2000/svg" xmlns:xlink="http://www.w3.org/1999/xlink" x="0px" y="0px" viewBox="0 0 300 300" style="enable-background:new 0 0 300 300;" xml:space="preserve">
  <g class="menu-bars">
    <path d="M278.4,83.4H135.8c-12,0-21.7-9.7-21.7-21.7S123.8,40,135.8,40h142.6c12,0,21.7,9.7,21.7,21.7S290.4,83.4,278.4,83.4z"/>
    <path d="M278.4,170.1H78.7c-12,0-21.7-9.7-21.7-21.7c0-12,9.7-21.7,21.7-21.7h199.7c12,0,21.7,9.7,21.7,21.7C300.1,160.4,290.4,170.1,278.4,170.1z"/>
    <path d="M278.4,256.8H21.7c-12,0-21.7-9.7-21.7-21.7s9.7-21.7,21.7-21.7h256.7c12,0,21.7,9.7,21.7,21.7S290.4,256.8,278.4,256.8z"/>
  </g>
</svg>
