<?xml version="1.0" encoding="utf-8"?>
<svg version="1.1" xmlns="http://www.w3.org/2000/svg" xmlns:xlink="http://www.w3.org/1999/xlink" x="0px" y="0px" viewBox="0 0 5000 5000" enable-background="new 0 0 5000 5000" xml:space="preserve">
  <g>
    <path d="M4790,1390H2113.3c-200,0-211.7-161.7-211.7-361.7s11.7-361.7,211.7-361.7H4790c200,0,211.7,161.7,211.7,361.7S4990,1390,4790,1390z"/>
    <path d="M4790,2835H1171.7c-200,0-221.7-161.7-221.7-361.7s21.7-361.7,221.7-361.7H4790c200,0,211.7,161.7,211.7,361.7C5001.7,2673.3,4990,2835,4790,2835z"/>
    <path d="M4790,4280H211.7C11.7,4280,0,4118.3,0,3918.3s11.7-361.7,211.7-361.7H4790c200,0,211.7,161.7,211.7,361.7S4990,4280,4790,4280z"/>
  </g>
</svg>
