<?xml version="1.0" encoding="utf-8"?>
<!-- Generator: Adobe Illustrator 18.1.1, SVG Export Plug-In . SVG Version: 6.00 Build 0)  -->
<svg version="1.1" id="Layer_1" xmlns="http://www.w3.org/2000/svg" xmlns:xlink="http://www.w3.org/1999/xlink" x="0px" y="0px"
	 viewBox="0 0 38 38" enable-background="new 0 0 38 38" xml:space="preserve">
<g>
	<path d="M36.4,10H26c0-1.4,0-2.2,0-2.3C26,6.2,25.9,5,24.4,5H13.6C12.1,5,12,6.2,12,7.7c0,0,0,0.9,0,2.3H1.6C0.1,10,0,11.3,0,12.8
		c0,0.2,0,16.8,0,17c0,1.5,0.1,3.7,1.6,3.7h34.8c1.5,0,1.6-2.2,1.6-3.7c0-0.2,0-16.8,0-17C38,11.3,37.9,10,36.4,10z M18.9,29.7
		c-4.4,0-8-3.6-8-8s3.6-8,8-8s8,3.6,8,8S23.3,29.7,18.9,29.7z"/>
	<circle cx="18.9" cy="21.7" r="6"/>
</g>
</svg>
