<?xml version="1.0" encoding="utf-8"?>
<!-- Generator: Adobe Illustrator 18.1.1, SVG Export Plug-In . SVG Version: 6.00 Build 0)  -->
<svg version="1.1" id="Layer_1" xmlns="http://www.w3.org/2000/svg" xmlns:xlink="http://www.w3.org/1999/xlink" x="0px" y="0px"
	 viewBox="0 0 38 38" enable-background="new 0 0 38 38" xml:space="preserve">
<g>
	<path d="M32.5,37.8H5.5c-0.7,0-1.2-0.6-1.2-1.2v-24c0-0.7,0.6-1.2,1.2-1.2h7.4c0.7,0,1.2,0.6,1.2,1.2s-0.6,1.2-1.2,1.2H6.8v21.5
		h24.4V13.8h-6.2c-0.7,0-1.2-0.6-1.2-1.2s0.6-1.2,1.2-1.2h7.4c0.7,0,1.2,0.6,1.2,1.2v24C33.7,37.2,33.2,37.8,32.5,37.8z"/>
</g>
<g>
	<path d="M19,23.4c-0.7,0-1.2-0.6-1.2-1.2v-20c0-0.7,0.6-1.2,1.2-1.2s1.2,0.6,1.2,1.2v20C20.2,22.8,19.7,23.4,19,23.4z"/>
</g>
<g>
	<path d="M23.9,7.5c-0.3,0-0.6-0.1-0.9-0.3l-4-3.9l-4,3.9c-0.5,0.5-1.3,0.5-1.8,0c-0.5-0.5-0.5-1.3,0-1.8L18,0.8
		c0.4-0.6,1.5-0.6,2-0.1l4.8,4.6c0.5,0.5,0.5,1.3,0,1.8C24.6,7.4,24.2,7.5,23.9,7.5z"/>
</g>
</svg>
