<?xml version="1.0" encoding="utf-8"?>
<svg version="1.1" xmlns="http://www.w3.org/2000/svg" xmlns:xlink="http://www.w3.org/1999/xlink" x="0px" y="0px" viewBox="0 0 38 38" enable-background="new 0 0 38 38" xml:space="preserve">
  <g>
	  <path d="M38,8.9c0-0.7-0.1-1.4-0.2-2c-0.2-0.8-0.4-1.6-0.8-2.4S36,3,35.3,2.4c-1-0.9-2.1-1.6-3.4-2C30.7,0.1,29.5,0,28.3,0l0,0H9.7l0,0C9,0,8.3,0,7.6,0.1C6.8,0.2,6.1,0.3,5.4,0.6C4.3,1,3.3,1.7,2.5,2.5c-0.9,1-1.6,2.1-2,3.4C0.2,7.1,0.1,8.3,0.1,9.5v18.7l0,0c0,0.8,0,1.7,0.2,2.5c0.1,0.9,0.4,1.7,0.8,2.5c0.6,1.1,1.3,2,2.3,2.7c0.7,0.5,1.4,1,2.3,1.2c1.2,0.4,2.5,0.5,3.7,0.5c0.8,0,1.6,0,2.4,0c5.8,0,11.5,0,17.4,0c0.8,0,1.5-0.1,2.3-0.2c1.4-0.3,2.7-0.9,3.8-1.8c1.3-1.1,2.1-2.5,2.5-4.2c0.2-1.1,0.1-3.2,0.1-3.2v-1C37.9,27.1,38,9.2,38,8.9L38,8.9z M32.9,26.5c-0.2,0.6-1.5,1-3.5,1.4c-0.2,0-0.3,0.3-0.4,0.9c0,0.2-0.1,0.4-0.2,0.6c-0.1,0.2-0.2,0.3-0.4,0.3l0,0c-0.1,0-0.3,0-0.6-0.1c-0.4-0.1-0.9-0.2-1.6-0.2c-0.4,0-0.7,0-1.1,0.1c-0.8,0.1-1.4,0.6-2.1,1.1c-1,0.7-2.1,1.5-3.7,1.5c-0.1,0-0.2,0-0.2,0H19c-1.6,0-2.8-0.8-3.7-1.5c-0.7-0.5-1.4-1-2.1-1.1c-0.4-0.1-0.8-0.1-1.1-0.1c-0.7,0-1.2,0.1-1.6,0.2c-0.2,0-0.4,0.1-0.6,0.1c-0.2,0-0.4,0-0.4-0.3c-0.1-0.2-0.1-0.4-0.2-0.6C9.1,28.3,9,28,8.8,27.9c-2.1-0.3-3.3-0.8-3.5-1.4c0-0.1,0-0.1,0-0.2c0-0.2,0.1-0.3,0.3-0.3c1.6-0.3,3.1-1.1,4.3-2.6c1-1.1,1.4-2.2,1.5-2.3l0,0c0.2-0.5,0.3-0.9,0.1-1.2c-0.3-0.6-1.1-0.9-1.7-1.1c-0.1,0-0.3-0.1-0.4-0.1c-0.5-0.2-1.4-0.6-1.3-1.2c0.1-0.4,0.7-0.7,1.1-0.7c0.1,0,0.2,0,0.3,0.1c0.5,0.2,1,0.4,1.4,0.4c0.5,0,0.7-0.2,0.8-0.2c0-0.3,0-0.6,0-0.8l0,0c-0.1-1.9-0.3-4.2,0.3-5.6c1.8-4,5.6-4.3,6.7-4.3h0.5c0,0,0,0,0.1,0c1.1,0,4.9,0.3,6.7,4.3c0.6,1.3,0.5,3.7,0.3,5.6v0.1c0,0.3,0,0.5,0,0.7c0.1,0.1,0.3,0.2,0.7,0.2c0.4,0,0.8-0.1,1.3-0.4c0.2-0.1,0.3-0.1,0.4-0.1c0.2,0,0.3,0,0.5,0.1l0,0c0.4,0.1,0.7,0.4,0.7,0.8c0,0.3-0.2,0.7-1.3,1.1c-0.1,0-0.2,0.1-0.4,0.1c-0.6,0.2-1.5,0.5-1.7,1.1c-0.1,0.3-0.1,0.8,0.1,1.2l0,0c0.1,0.2,1.9,4.2,5.8,4.9c0.2,0,0.3,0.2,0.3,0.3C32.9,26.4,32.9,26.5,32.9,26.5L32.9,26.5z"/>
  </g>
</svg>
