<?xml version="1.0" encoding="utf-8"?>
<svg version="1.1" xmlns="http://www.w3.org/2000/svg" xmlns:xlink="http://www.w3.org/1999/xlink" x="0px" y="0px" viewBox="0 0 38 38" enable-background="new 0 0 38 38" xml:space="preserve">
  <g>
    <path d="M18.4,13.2C18,9.6,19,6.7,21.9,4.7c2.8-1.9,6.5-1.8,9.3,0.4c0.8,0.6,1.5,0.8,2.4,0.4c1-0.4,2.1-0.8,3.5-1.4c-0.6,0.9-0.9,1.7-1.4,2.3c-0.5,0.6-1.1,1.1-1.7,1.6C34,8.2,34,8.3,34.1,8.4c1.2-0.3,2.4-0.6,3.9-0.9c-1.1,1.1-1.8,2.1-2.7,2.8c-0.9,0.7-1.1,1.5-1.2,2.6C33.9,23.2,26.9,32,16.7,34.3C11.4,35.6,6.1,35.1,1,32.7c-0.2-0.1-0.4-0.2-1-0.6c4.3-0.1,7.9-1.3,11.1-4c-3.5-0.4-5.9-2-7.3-5.2c1.1-0.1,2.1-0.2,3.1-0.3c-4.2-2.2-6.3-4.9-5.9-7.8c1,0.2,2,0.5,3,0.7c0.1-0.1,0.1-0.2,0.2-0.2C1.1,12.5-0.1,9.3,1.9,5.1C6.3,10.1,11.8,12.8,18.4,13.2"/>
  </g>
</svg>
